<svg id="Capa_1" enable-background="new 0 0 512.161 512.161" height="512" viewBox="0 0 512.161 512.161" width="512" xmlns="http://www.w3.org/2000/svg"><g><path fill="white" d="M 449.596 121.778 c 0.355 0.04 0.709 0.059 1.062 0.059 c 2.529 0 4.975 -1.002 6.785 -2.811 l 51.746 -51.745 c 2.632 -2.633 3.505 -6.551 2.237 -10.053 c -1.268 -3.502 -4.447 -5.954 -8.155 -6.291 L 464.58 47.42 l -3.519 -38.691 c -0.336 -3.708 -2.789 -6.887 -6.29 -8.154 c -3.502 -1.268 -7.42 -0.396 -10.054 2.237 l -51.746 51.746 c -2.061 2.061 -3.075 4.949 -2.752 7.847 l 4.58 41.223 l -9.69 9.69 c -35.788 -32.737 -82.728 -53.464 -134.382 -55.76 V 39.335 c 0 -5.3 -4.297 -9.597 -9.597 -9.597 c -5.3 0 -9.597 4.297 -9.597 9.597 v 18.22 c -110.125 4.896 -198.819 93.59 -203.716 203.716 H 9.597 c -5.3 0 -9.597 4.297 -9.597 9.597 c 0 5.3 4.297 9.597 9.597 9.597 h 18.22 c 4.897 110.126 93.591 198.819 203.716 203.716 v 18.22 c 0 5.3 4.297 9.597 9.597 9.597 c 5.3 0 9.597 -4.297 9.597 -9.597 v -18.22 c 110.125 -4.896 198.819 -93.59 203.716 -203.716 h 18.22 c 5.3 0 9.597 -4.297 9.597 -9.597 c 0 -5.3 -4.297 -9.597 -9.597 -9.597 h -18.22 c -2.296 -51.654 -23.023 -98.594 -55.759 -134.384 l 9.69 -9.69 L 449.596 121.778 Z M 443.802 30.873 l 2.387 26.25 c 0.42 4.614 4.074 8.269 8.688 8.689 l 26.25 2.386 l -33.996 33.995 l -33.592 -3.732 l -3.732 -33.592 L 443.802 30.873 Z M 435.236 261.271 h -13.521 c -5.3 0 -9.597 4.297 -9.597 9.597 c 0 5.3 4.297 9.597 9.597 9.597 h 13.521 c -4.865 99.542 -84.967 179.644 -184.508 184.508 v -13.52 c 0 -5.3 -4.297 -9.597 -9.597 -9.597 c -5.3 0 -9.597 4.297 -9.597 9.597 v 13.52 C 131.992 460.11 51.89 380.006 47.025 280.466 h 13.521 c 5.3 0 9.597 -4.297 9.597 -9.597 c 0 -5.3 -4.297 -9.597 -9.597 -9.597 H 47.025 c 4.865 -99.54 84.967 -179.644 184.508 -184.508 v 13.52 c 0 5.3 4.297 9.597 9.597 9.597 c 5.3 0 9.597 -4.297 9.597 -9.597 v -13.52 c 46.366 2.266 88.513 20.855 120.805 50.13 l -28.878 28.878 c -27.083 -23.919 -62.635 -38.459 -101.525 -38.459 c -84.671 0 -153.556 68.884 -153.556 153.556 s 68.885 153.556 153.556 153.556 s 153.556 -68.884 153.556 -153.556 c 0 -38.889 -14.54 -74.441 -38.457 -101.526 l 28.878 -28.878 C 414.382 172.758 432.97 214.906 435.236 261.271 Z M 234.344 277.655 c 1.875 1.874 4.33 2.811 6.786 2.811 s 4.913 -0.937 6.786 -2.811 l 52.12 -52.12 c 9.688 12.56 15.472 28.281 15.472 45.334 c 0 41.013 -33.366 74.379 -74.379 74.379 s -74.379 -33.366 -74.379 -74.379 s 33.366 -74.379 74.379 -74.379 c 17.053 0 32.773 5.784 45.334 15.472 l -52.12 52.12 C 230.597 267.831 230.597 273.907 234.344 277.655 Z M 241.131 177.297 c -51.597 0 -93.573 41.977 -93.573 93.573 s 41.976 93.573 93.573 93.573 c 51.597 0 93.573 -41.977 93.573 -93.573 c 0 -22.348 -7.885 -42.884 -21.006 -58.994 l 28.942 -28.942 c 20.457 23.583 32.853 54.338 32.853 87.935 c 0 74.087 -60.274 134.361 -134.361 134.361 s -134.361 -60.274 -134.361 -134.361 s 60.274 -134.362 134.361 -134.362 c 33.596 0 64.353 12.396 87.936 32.853 l -28.942 28.943 C 284.015 185.182 263.48 177.297 241.131 177.297 Z"/></g></svg>