<?xml version="1.0"?>
<svg xmlns="http://www.w3.org/2000/svg" viewBox="0 0 512 512" width="512" height="512"><g id="Out_line" data-name="Out line"><path fill="white" d="M493.65674,250.34326,371.31348,128l98.34326-98.34326L458.34326,18.34326l-104,104a7.99915,7.99915,0,0,0,0,11.31348L356.68652,136l-32,32H288.56836a145.70633,145.70633,0,0,0-32.70551,3.70135A144.69428,144.69428,0,0,0,223.43164,168H187.31348l-32-32,2.34326-2.34326a7.99915,7.99915,0,0,0,0-11.31348l-104-104L42.34326,29.65674,140.68652,128,18.34326,250.34326a7.99915,7.99915,0,0,0,0,11.31348l24,24a7.99945,7.99945,0,0,0,11.31348,0L72,267.31348l15.02979,15.02978A30.427,30.427,0,0,1,96,304a46.32162,46.32162,0,0,0,13.65674,32.97021l7.079,7.079a24.00923,24.00923,0,0,0,.921,32.921l9.37305,9.373a23.874,23.874,0,0,0,15.67077,6.95618,23.8744,23.8744,0,0,0,6.95618,15.67077l9.373,9.373a23.874,23.874,0,0,0,15.67077,6.95618,23.8744,23.8744,0,0,0,6.95618,15.67077l9.373,9.373a23.874,23.874,0,0,0,15.67077,6.95618,23.8744,23.8744,0,0,0,6.95618,15.67077l9.373,9.373A23.97185,23.97185,0,0,0,256,483.21991a23.97185,23.97185,0,0,0,32.97021-.87665l9.373-9.373a23.90317,23.90317,0,0,0,6.98194-15.645,23.90317,23.90317,0,0,0,15.645-6.98194l9.373-9.373a23.90317,23.90317,0,0,0,6.98194-15.645,23.90317,23.90317,0,0,0,15.645-6.98194l9.373-9.373a23.90317,23.90317,0,0,0,6.98194-15.645,23.90317,23.90317,0,0,0,15.645-6.98194l9.373-9.373a24.00923,24.00923,0,0,0,.921-32.921l7.079-7.079A46.32162,46.32162,0,0,0,416,304a30.427,30.427,0,0,1,8.97021-21.65674L440,267.31348l18.34326,18.34326a7.99945,7.99945,0,0,0,11.31348,0l24-24A7.99915,7.99915,0,0,0,493.65674,250.34326ZM48,268.68652,35.31348,256,144,147.31348,156.68652,160Zm80.97021,96.97022a8.00889,8.00889,0,0,1,0-11.31348l33.373-33.373a8.00889,8.00889,0,0,1,11.31348,0l9.373,9.373a8.00889,8.00889,0,0,1,0,11.31348l-33.373,33.373a8.00889,8.00889,0,0,1-11.31348,0Zm32,32a8.00889,8.00889,0,0,1,0-11.31348l41.373-41.373a8.00891,8.00891,0,0,1,11.31348,0l9.373,9.373a8.00889,8.00889,0,0,1,0,11.31348l-41.373,41.373a8.00889,8.00889,0,0,1-11.31348,0Zm32,32a8.00889,8.00889,0,0,1,0-11.31348l33.373-33.373a8.00889,8.00889,0,0,1,11.31348,0l9.373,9.373a8.00889,8.00889,0,0,1,0,11.31348l-33.373,33.373a8.00889,8.00889,0,0,1-11.31348,0Zm41.373,41.373-9.373-9.373a8.00889,8.00889,0,0,1,0-11.31348l33.373-33.373a8.00891,8.00891,0,0,1,11.31348,0l9.373,9.373a8.00889,8.00889,0,0,1,0,11.31348l-33.373,33.373A8.00889,8.00889,0,0,1,234.34326,471.02979Zm52.68653-9.373-9.373,9.373a7.98806,7.98806,0,0,1-10.25556.8825l20.51111-20.51111a7.98806,7.98806,0,0,1-.8825,10.25556Zm96-96-9.373,9.373a8.00063,8.00063,0,0,1-11.31348,0l-4.68652-4.68653-56-56-11.31348,11.31348,56,56,4.68653,4.68652a8.00889,8.00889,0,0,1,0,11.31348l-9.373,9.373a8.00889,8.00889,0,0,1-11.31348,0l-4.68652-4.68653-56-56-11.31348,11.31348,56,56,4.68653,4.68652a8.00889,8.00889,0,0,1,0,11.31348l-9.373,9.373a8.00889,8.00889,0,0,1-11.31348,0l-1.621-1.621a23.98148,23.98148,0,0,0-6.379-22.379l-9.373-9.373a23.8744,23.8744,0,0,0-15.67077-6.95618,23.8744,23.8744,0,0,0-6.95618-15.67077l-9.373-9.373a23.81174,23.81174,0,0,0-9.00842-5.63831,24.00646,24.00646,0,0,0-5.61853-24.98864l-9.373-9.373a24.00646,24.00646,0,0,0-24.98864-5.61853,23.81174,23.81174,0,0,0-5.63831-9.00842l-9.373-9.373a24.02666,24.02666,0,0,0-33.94042,0L128,332.68652l-7.02979-7.02978A30.427,30.427,0,0,1,112,304a46.32162,46.32162,0,0,0-13.65674-32.97021L83.31348,256,168,171.31348l10.34326,10.34326A7.99877,7.99877,0,0,0,184,184h38.32733a144.94277,144.94277,0,0,0-35.98407,26.34326,30.62726,30.62726,0,0,0,43.31348,43.31348L256,227.31348,378.34326,349.65674l4.68653,4.68652a8.00063,8.00063,0,0,1,0,11.31348Zm30.627-94.627A46.32162,46.32162,0,0,0,400,304a30.427,30.427,0,0,1-8.97021,21.65674L384,332.68652,261.65674,210.34326a8,8,0,0,0-11.31348,0l-32,32a14.62758,14.62758,0,0,1-20.68652-20.68652A127.72812,127.72812,0,0,1,288.56836,184H328a7.99877,7.99877,0,0,0,5.65674-2.34326L344,171.31348,428.68652,256ZM464,268.68652,355.31348,160,368,147.31348,476.68652,256Z"/></g></svg>
